<svg width="150" height="46" viewBox="0 0 150 46" fill="none" xmlns="http://www.w3.org/2000/svg">
<path d="M147.075 30.8724H149.858V14.4569H147.075V30.8724ZM50.5999 30.8724H53.3826V25.9384C53.3826 23.2492 54.8558 21.9631 56.9371 21.9631C59.0647 21.9631 59.9537 22.9218 59.9537 25.0733V30.8724H62.7596V24.2547C62.7596 20.9109 60.9358 18.8063 57.9192 18.8063C56.0484 18.8063 54.4348 19.6014 53.3124 21.0977V19.1803H50.5999V30.8724ZM63.6704 27.2245C63.6704 29.6798 65.8921 31.2466 68.6513 31.2466C70.8027 31.2466 72.7902 30.3579 73.6555 29.0249V30.8724H76.4382V23.9975C76.4382 19.9522 74.4742 18.8063 70.5453 18.8063C66.243 18.8063 64.1383 20.2794 64.1383 23.2726H66.9208C66.9208 22.1501 67.7862 21.5656 70.4285 21.5656C72.7902 21.5656 73.6555 22.1035 73.6555 23.2492L68.4642 23.9039C65.4713 24.2782 63.7641 24.8158 63.6704 27.2245ZM73.6555 26.3126C72.9072 27.5517 71.06 28.6041 68.8151 28.6041C67.5057 28.6041 66.7806 28.183 66.7806 27.4115C66.7806 26.8503 67.2483 26.4994 68.1602 26.336L73.6555 25.4941V26.3126ZM78.2146 30.8724H80.9971V25.9384C80.9971 23.2492 82.4703 21.9631 84.5516 21.9631C86.6794 21.9631 87.5682 22.9218 87.5682 25.0733V30.8724H90.3741V24.2547C90.3741 20.9109 88.5503 18.8063 85.5337 18.8063C83.6629 18.8063 82.0493 19.6014 80.9269 21.0977V19.1803H78.2146V30.8724ZM91.2383 25.0262C91.2383 28.4637 93.9743 31.2466 97.9262 31.2466C101.855 31.3168 104.707 28.4171 104.637 25.0262C104.707 21.6358 101.855 18.7361 97.9262 18.8063C93.9743 18.8063 91.2383 21.5888 91.2383 25.0262ZM101.808 25.0262C101.808 26.9905 100.241 28.0898 97.9262 28.0898C95.6113 28.0898 94.0679 26.9905 94.0679 25.0262C94.0679 23.062 95.6113 21.9631 97.9262 21.9631C100.241 21.9631 101.808 23.062 101.808 25.0262ZM104.94 25.0262C104.94 28.6041 107.372 31.2466 110.669 31.2466C112.797 31.2466 114.27 30.5215 115.112 29.0483V30.8724H117.872V14.4569H115.066V20.7239C114.224 19.4378 112.844 18.8063 110.927 18.8063C107.372 18.8063 104.94 21.5188 104.94 25.0262ZM115.089 25.0262C115.089 27.1077 113.709 28.3705 111.394 28.3705C109.079 28.3705 107.77 27.1543 107.77 25.0262C107.77 22.9452 109.079 21.7292 111.394 21.7292C113.709 21.7292 115.089 22.9452 115.089 25.0262ZM132.181 24.8158C132.181 21.4956 129.633 18.8063 125.727 18.8063C121.776 18.8063 118.993 21.5188 118.993 25.0262C118.993 28.3937 121.518 31.2466 125.891 31.2466C129.375 31.2466 131.971 29.4694 132.111 26.8737H129.305C129.118 27.7156 127.692 28.2532 125.844 28.2532C123.693 28.2532 122.243 27.4115 121.846 25.8915H132.181V24.8158ZM121.869 23.9975C122.267 22.5945 123.599 21.7994 125.634 21.7994C127.949 21.7994 129.352 22.6645 129.422 23.9975H121.869ZM132.531 27.2245C132.531 29.6798 134.753 31.2466 137.512 31.2466C139.663 31.2466 141.651 30.3579 142.516 29.0249V30.8724H145.299V23.9975C145.299 19.9522 143.335 18.8063 139.406 18.8063C135.103 18.8063 132.999 20.2794 132.999 23.2726H135.781C135.781 22.1501 136.647 21.5656 139.289 21.5656C141.651 21.5656 142.516 22.1035 142.516 23.2492L137.325 23.9039C134.332 24.2782 132.625 24.8158 132.531 27.2245ZM142.516 26.3126C141.768 27.5517 139.92 28.6041 137.676 28.6041C136.366 28.6041 135.641 28.183 135.641 27.4115C135.641 26.8503 136.109 26.4994 137.021 26.336L142.516 25.4941V26.3126Z" fill="#37323C"/>
<path fill-rule="evenodd" clip-rule="evenodd" d="M1.82435 8.21598C2.0274 3.64498 5.83165 0.000175476 10.4956 0.000175476C15.2898 0.000175476 19.176 3.85072 19.176 8.60012C19.176 9.75255 18.9462 10.8518 18.5316 11.857C16.22 18.2242 13.8125 25.2982 11.3185 31.5083C10.599 33.8617 8.39464 35.5752 5.78415 35.5752C2.58904 35.5752 0 33.0091 0 29.8441C0 23.9074 1.26732 14.6006 1.82589 8.21598H1.82435Z" fill="url(#paint0_radial)"/>
<path fill-rule="evenodd" clip-rule="evenodd" d="M35.4801 32.5649C36.4272 33.9428 36.9811 35.6076 36.9811 37.4001C36.9811 42.1502 33.0949 46 28.3015 46C25.0152 46 22.1557 44.1901 20.6822 41.5224C15.023 33.2876 8.29027 22.0875 3.23326 13.3099C2.33755 11.957 1.81653 10.3385 1.81653 8.59995C1.81653 3.84978 5.70276 0 10.4962 0C13.7289 0 16.5477 1.75066 18.0419 4.34704C23.6253 12.7807 30.6683 23.8488 35.4801 32.5649Z" fill="url(#paint1_radial)"/>
<path fill-rule="evenodd" clip-rule="evenodd" d="M37.0029 37.9933C36.6896 42.4611 32.9328 45.9882 28.3447 45.9882C23.5505 45.9882 19.6651 42.1377 19.6651 37.3883C19.6651 36.4886 19.8053 35.6209 20.065 34.8063C21.8036 28.1574 24.0539 20.3539 26.2047 13.8378C26.9257 11.0183 29.504 8.93205 32.5742 8.93205C36.203 8.93205 39.1445 11.8465 39.1445 15.442C39.1445 15.7267 39.1261 16.0061 39.0901 16.2809C38.6334 23.5052 37.8803 30.8062 37.0037 37.9933H37.0029Z" fill="url(#paint2_radial)"/>
<defs>
<radialGradient id="paint0_radial" cx="0" cy="0" r="1" gradientUnits="userSpaceOnUse" gradientTransform="translate(3.28227 11.3716) rotate(74.728) scale(24.7727 22.7913)">
<stop stop-color="#E782F7"/>
<stop offset="0.678431" stop-color="#DE5CB6"/>
<stop offset="1" stop-color="#D63676"/>
</radialGradient>
<radialGradient id="paint1_radial" cx="0" cy="0" r="1" gradientUnits="userSpaceOnUse" gradientTransform="translate(20.1114 38.1702) rotate(-117.515) scale(34.1099 31.5833)">
<stop stop-color="#FF7D4B"/>
<stop offset="0.658824" stop-color="#F380A1"/>
<stop offset="1" stop-color="#E782F7"/>
</radialGradient>
<radialGradient id="paint2_radial" cx="0" cy="0" r="1" gradientUnits="userSpaceOnUse" gradientTransform="translate(35.0389 13.403) rotate(123.983) scale(27.1634 41.5302)">
<stop stop-color="#FFDB13"/>
<stop offset="0.541176" stop-color="#FFAC2F"/>
<stop offset="1" stop-color="#FF7D4B"/>
</radialGradient>
</defs>
</svg>
