<svg width="22" height="18" viewBox="0 0 22 18" fill="none" xmlns="http://www.w3.org/2000/svg">
<path fill-rule="evenodd" clip-rule="evenodd" d="M2.91683 0H19.0832C20.3316 0 21.3472 1.01558 21.3472 2.26403V5.40748C21.3472 5.66527 21.1372 5.87526 20.8794 5.87526H20V15.736C20 16.9844 18.9844 18 17.736 18H4.26403C3.01558 18 1.99999 16.9844 1.99999 15.736V5.87526H1.12058C0.937026 5.87526 0.779361 5.76907 0.702893 5.61771C0.670626 5.55401 0.652802 5.48236 0.652802 5.40748V2.26403C0.652802 1.01558 1.66839 0 2.91683 0ZM17.736 16.1663C17.973 16.1663 18.1663 15.973 18.1663 15.736V5.87526H3.83367V15.736C3.83367 15.973 4.02695 16.1663 4.26403 16.1663H17.736ZM14.6112 9C14.6112 9.25779 14.4012 9.46778 14.1434 9.46778H7.85654C7.59875 9.46778 7.38877 9.25779 7.38877 9V8.10187C7.38877 7.84408 7.59875 7.6341 7.85654 7.6341H14.1434C14.4012 7.6341 14.6112 7.84408 14.6112 8.10187V9ZM2.24324 2.26403C2.24324 2.0657 2.32941 1.88711 2.46624 1.76377C2.58574 1.65611 2.74383 1.59044 2.91683 1.59044H19.0832C19.4546 1.59044 19.7568 1.8927 19.7568 2.26403V4.28482H2.24324V2.26403Z" fill="#9A99B8"/>
</svg>
